<svg width="32" height="32" viewBox="0 0 32 32" fill="none" xmlns="http://www.w3.org/2000/svg">
<g clip-path="url(#clip0_166_3913)">
<path fill-rule="evenodd" clip-rule="evenodd" d="M16 29.3337C20.4183 29.3337 24 25.7519 24 21.3337C24 16.9154 20.4183 13.3337 16 13.3337C11.5817 13.3337 8 16.9154 8 21.3337C8 25.7519 11.5817 29.3337 16 29.3337ZM16 32.0003C21.891 32.0003 26.6667 27.2247 26.6667 21.3337C26.6667 15.4426 21.891 10.667 16 10.667C10.109 10.667 5.33334 15.4426 5.33334 21.3337C5.33334 27.2247 10.109 32.0003 16 32.0003Z" fill="white"/>
<path fill-rule="evenodd" clip-rule="evenodd" d="M16 24C17.4728 24 18.6667 22.8061 18.6667 21.3333C18.6667 19.8606 17.4728 18.6667 16 18.6667C14.5272 18.6667 13.3333 19.8606 13.3333 21.3333C13.3333 22.8061 14.5272 24 16 24ZM16 26.6667C18.9455 26.6667 21.3333 24.2789 21.3333 21.3333C21.3333 18.3878 18.9455 16 16 16C13.0545 16 10.6667 18.3878 10.6667 21.3333C10.6667 24.2789 13.0545 26.6667 16 26.6667Z" fill="white"/>
<path d="M9.64787 2.66667C8.65669 2.66667 8.01203 3.70975 8.4553 4.59628L11.8989 11.4835C11.0682 11.8297 10.2907 12.278 9.58202 12.8126L6.07016 5.78885C4.74036 3.12925 6.67434 0 9.64787 0H11.685C13.2001 0 14.5852 0.856009 15.2627 2.21115L15.9998 3.68521L16.7368 2.21115C17.4144 0.85601 18.7994 0 20.3145 0H22.3517C25.3252 0 27.2592 3.12925 25.9294 5.78885L22.4175 12.8126C21.7088 12.278 20.9313 11.8297 20.1006 11.4835L23.5442 4.59628C23.9875 3.70975 23.3428 2.66667 22.3517 2.66667H20.3145C19.8095 2.66667 19.3478 2.952 19.1219 3.40372L17.4905 6.66664L19.8482 11.382C18.8064 10.9789 17.6855 10.7346 16.5152 10.6789L12.8776 3.40371C12.6517 2.952 12.1901 2.66667 11.685 2.66667H9.64787Z" fill="white"/>
</g>
<defs>
<clipPath id="clip0_166_3913">
<rect width="32" height="32" fill="white"/>
</clipPath>
</defs>
</svg>
