<svg width="73" height="69" viewBox="0 0 73 69" fill="none" xmlns="http://www.w3.org/2000/svg">
<path d="M72.2857 34.4998L64.2686 25.3326L65.3857 13.2083L53.5243 10.514L47.3143 -0.000244141L36.1429 4.7969L24.9714 -0.000244141L18.7614 10.4812L6.9 13.1426L8.01714 25.2998L0 34.4998L8.01714 43.6669L6.9 55.824L18.7614 58.5183L24.9714 68.9998L36.1429 64.1698L47.3143 68.9669L53.5243 58.4855L65.3857 55.7912L64.2686 43.6669L72.2857 34.4998ZM27.5343 47.6755L19.7143 39.7898C18.4329 38.5083 18.4329 36.4383 19.7143 35.1569L19.9443 34.9269C21.2257 33.6455 23.3286 33.6455 24.61 34.9269L29.9 40.2498L46.8214 23.2955C48.1029 22.014 50.2057 22.014 51.4871 23.2955L51.7171 23.5255C52.9986 24.8069 52.9986 26.8769 51.7171 28.1583L32.2657 47.6755C30.9186 48.9569 28.8486 48.9569 27.5343 47.6755Z" fill="#F9D520"/>
</svg>
