<svg width="53" height="68" viewBox="0 0 53 68" fill="none" xmlns="http://www.w3.org/2000/svg">
<path fill-rule="evenodd" clip-rule="evenodd" d="M33.9167 0H15.4167C14.04 0 12.8302 0.912597 12.452 2.23628L8.7957 15.0332C3.41762 19.558 0 26.3382 0 33.9167C0 41.4951 3.41762 48.2753 8.7957 52.8001L12.452 65.5971C12.8302 66.9207 14.04 67.8333 15.4167 67.8333H33.9167C35.2933 67.8333 36.5032 66.9207 36.8814 65.5971L40.5376 52.8001C45.9157 48.2753 49.3333 41.4951 49.3333 33.9167C49.3333 26.3382 45.9157 19.558 40.5376 15.0332L36.8814 2.23628C36.5032 0.912597 35.2933 0 33.9167 0ZM24.6667 9.25C27.543 9.25 30.3044 9.74232 32.8711 10.6473L31.5909 6.16667H17.7424L16.4622 10.6473C19.029 9.74232 21.7903 9.25 24.6667 9.25ZM17.7424 61.6667L16.4622 57.186C19.029 58.091 21.7903 58.5833 24.6667 58.5833C27.543 58.5833 30.3044 58.091 32.8711 57.186L31.5909 61.6667H17.7424ZM43.1667 33.9167C43.1667 44.1339 34.8839 52.4167 24.6667 52.4167C14.4494 52.4167 6.16667 44.1339 6.16667 33.9167C6.16667 23.6994 14.4494 15.4167 24.6667 15.4167C34.8839 15.4167 43.1667 23.6994 43.1667 33.9167Z" fill="#FF701F"/>
<path fill-rule="evenodd" clip-rule="evenodd" d="M27.7502 30.8333H33.9168V36.9999H21.5835V21.5833H27.7502V30.8333Z" fill="#FF701F"/>
<path fill-rule="evenodd" clip-rule="evenodd" d="M46.25 36.9999V30.8333H52.4167V36.9999H46.25Z" fill="#FF701F"/>
</svg>
