<svg width="9" height="9" viewBox="0 0 9 9" fill="none" xmlns="http://www.w3.org/2000/svg">
<g clip-path="url(#clip0_380_10186)">
<path fill-rule="evenodd" clip-rule="evenodd" d="M2.61374 5.93641V7.09142L4.50363 5.97467L4.70117 5.97143C5.48662 5.95857 6.19349 5.87949 6.72204 5.79906C7.0556 5.74831 7.28738 5.51551 7.33774 5.2232C7.40758 4.81774 7.46707 4.30405 7.46707 3.73325C7.46707 3.16245 7.40758 2.64876 7.33774 2.2433C7.28738 1.95099 7.0556 1.71819 6.72204 1.66743C6.14395 1.57947 5.35338 1.49325 4.4804 1.49325C3.60743 1.49325 2.81686 1.57947 2.23877 1.66743C1.9052 1.71819 1.67342 1.95099 1.62307 2.2433C1.55323 2.64876 1.49374 3.16245 1.49374 3.73325C1.49374 4.30405 1.55323 4.81774 1.62307 5.2232C1.6668 5.47703 1.84412 5.6805 2.10267 5.76647L2.61374 5.93641ZM0.887241 2.11655C0.995578 1.4876 1.4955 1.02527 2.12645 0.929263C2.731 0.837277 3.56036 0.746582 4.4804 0.746582C5.40045 0.746582 6.2298 0.837277 6.83436 0.929263C7.46531 1.02527 7.96523 1.4876 8.07357 2.11655C8.14907 2.5549 8.21374 3.11174 8.21374 3.73325C8.21374 4.35475 8.14907 4.91159 8.07357 5.34994C7.96523 5.9789 7.46531 6.44123 6.83436 6.53723C6.28129 6.62139 5.54007 6.70446 4.71339 6.718L2.43033 8.06708C2.18146 8.21414 1.86707 8.03474 1.86707 7.74567V6.47499C1.36179 6.30697 0.980239 5.88984 0.887241 5.34994C0.811736 4.91159 0.74707 4.35475 0.74707 3.73325C0.74707 3.11174 0.811736 2.5549 0.887241 2.11655Z" fill="#0085AB"/>
<path fill-rule="evenodd" clip-rule="evenodd" d="M2.61357 2.61328C2.40738 2.61328 2.24023 2.78043 2.24023 2.98661C2.24023 3.1928 2.40738 3.35995 2.61357 3.35995H6.3469C6.55309 3.35995 6.72023 3.1928 6.72023 2.98661C6.72023 2.78043 6.55309 2.61328 6.3469 2.61328H2.61357ZM2.61357 4.10661C2.40738 4.10661 2.24023 4.27376 2.24023 4.47995C2.24023 4.68613 2.40738 4.85328 2.61357 4.85328H4.1069C4.31309 4.85328 4.48023 4.68613 4.48023 4.47995C4.48023 4.27376 4.31309 4.10661 4.1069 4.10661H2.61357Z" fill="#0085AB"/>
</g>
<defs>
<clipPath id="clip0_380_10186">
<rect width="8.96" height="8.96" fill="white"/>
</clipPath>
</defs>
</svg>
