<svg width="1728" height="743" viewBox="0 0 1728 743" fill="none" xmlns="http://www.w3.org/2000/svg">
<path d="M-111 742.5C-111 644.994 -85.7808 548.442 -36.7826 458.358C12.2159 368.273 84.0338 286.421 174.571 217.473C265.108 148.526 372.591 93.8337 490.884 56.5196C609.176 19.2054 735.961 9.21686e-05 864 8.52372e-05C992.039 7.83058e-05 1118.82 19.2054 1237.12 56.5195C1355.41 93.8336 1462.89 148.526 1553.43 217.473C1643.97 286.421 1715.78 368.273 1764.78 458.358C1813.78 548.442 1839 644.994 1839 742.5L864 742.5L-111 742.5Z" fill="url(#paint0_linear_107_4492)"/>
<defs>
<linearGradient id="paint0_linear_107_4492" x1="864" y1="8.52372e-05" x2="864" y2="1612.03" gradientUnits="userSpaceOnUse">
<stop stop-color="#0085AB"/>
<stop offset="0.460603" stop-color="#05CD99" stop-opacity="0"/>
</linearGradient>
</defs>
</svg>
