<svg width="21" height="17" viewBox="0 0 21 17" fill="none" xmlns="http://www.w3.org/2000/svg">
<path fill-rule="evenodd" clip-rule="evenodd" d="M3.10889 4.92037C3.10907 4.07202 3.32718 3.23813 3.74207 2.49961C4.15695 1.76109 4.75452 1.14302 5.47678 0.705386C6.19904 0.267754 7.02146 0.0254171 7.86423 0.00189284C8.70701 -0.0216314 9.54152 0.174456 10.2868 0.571126C11.032 0.967795 11.6627 1.55158 12.1177 2.26582C12.5726 2.98006 12.8363 3.80051 12.8832 4.64754C12.9302 5.49457 12.7587 6.33942 12.3854 7.1001C12.0122 7.86079 11.4499 8.51147 10.753 8.98901C12.2537 9.54284 13.5553 10.5359 14.4903 11.8403C15.4253 13.1447 15.951 14.7009 15.9997 16.3085C16.0023 16.3966 15.9877 16.4844 15.9566 16.5668C15.9255 16.6493 15.8786 16.7247 15.8185 16.7889C15.6972 16.9185 15.5296 16.9944 15.3528 16.9997C15.1759 17.005 15.0041 16.9395 14.8753 16.8174C14.7465 16.6953 14.6711 16.5267 14.6658 16.3487C14.6128 14.6052 13.8873 12.9509 12.6429 11.7364C11.3985 10.5219 9.733 9.84274 7.99941 9.84274C6.26583 9.84274 4.60037 10.5219 3.35596 11.7364C2.11155 12.9509 1.38599 14.6052 1.33303 16.3487C1.32413 16.524 1.24737 16.6887 1.11921 16.8077C0.991054 16.9267 0.821682 16.9904 0.647381 16.9853C0.473081 16.9801 0.307716 16.9065 0.186713 16.7802C0.0657097 16.6538 -0.00130714 16.4848 1.93218e-05 16.3094C0.04853 14.7016 0.574136 13.1453 1.50918 11.8407C2.44423 10.5361 3.74591 9.54289 5.24669 8.98901C4.58748 8.53782 4.04803 7.93116 3.67539 7.22196C3.30276 6.51276 3.10827 5.72258 3.10889 4.92037V4.92037ZM7.99986 1.34117C7.05647 1.34117 6.15171 1.71826 5.48463 2.38949C4.81756 3.06072 4.44279 3.9711 4.44279 4.92037C4.44279 5.86963 4.81756 6.78001 5.48463 7.45124C6.15171 8.12247 7.05647 8.49956 7.99986 8.49956C8.94325 8.49956 9.84801 8.12247 10.5151 7.45124C11.1822 6.78001 11.5569 5.86963 11.5569 4.92037C11.5569 3.9711 11.1822 3.06072 10.5151 2.38949C9.84801 1.71826 8.94325 1.34117 7.99986 1.34117Z" fill="#8F9BBA"/>
<path d="M15.1508 5.30049C15.0214 5.30049 14.8955 5.30915 14.7713 5.32649C14.6846 5.34187 14.5957 5.33979 14.5099 5.32037C14.424 5.30096 14.343 5.2646 14.2716 5.21347C14.2002 5.16233 14.14 5.09748 14.0945 5.02277C14.0489 4.94805 14.019 4.86502 14.0066 4.77861C13.9941 4.6922 13.9994 4.60419 14.022 4.51983C14.0446 4.43547 14.0841 4.35649 14.1382 4.28759C14.1922 4.2187 14.2598 4.16131 14.3367 4.11884C14.4136 4.07637 14.4984 4.04969 14.586 4.04041C15.4555 3.91579 16.3422 4.08131 17.1065 4.51092C17.8708 4.94053 18.4693 5.60984 18.8077 6.41352C19.1462 7.2172 19.2054 8.10962 18.9762 8.95033C18.7469 9.79105 18.2421 10.5323 17.5412 11.0575C18.5715 11.5148 19.4463 12.2578 20.06 13.1969C20.6737 14.136 21.0002 15.2311 21 16.35C21 16.5224 20.9309 16.6877 20.8079 16.8096C20.685 16.9315 20.5182 17 20.3443 17C20.1703 17 20.0036 16.9315 19.8806 16.8096C19.7576 16.6877 19.6885 16.5224 19.6885 16.35C19.6884 15.383 19.3741 14.4417 18.792 13.6656C18.21 12.8895 17.3912 12.3199 16.457 12.0411L15.9901 11.9025V10.45L16.3486 10.2689C16.88 10.0021 17.3051 9.56557 17.5554 9.02981C17.8057 8.49405 17.8666 7.89031 17.7281 7.31606C17.5897 6.74181 17.26 6.23056 16.7924 5.86486C16.3248 5.49915 15.7464 5.30033 15.1508 5.30049Z" fill="#8F9BBA"/>
</svg>
