<svg width="60" height="66" viewBox="0 0 60 66" fill="none" xmlns="http://www.w3.org/2000/svg">
<path d="M48.8825 8.52726C48.6225 8.52726 48.3625 8.46226 48.135 8.33226C41.895 5.11476 36.5 3.74976 30.0325 3.74976C23.5975 3.74976 17.4875 5.27726 11.93 8.33226C11.15 8.75476 10.175 8.46226 9.72001 7.68226C9.29751 6.90226 9.59001 5.89476 10.37 5.47226C16.415 2.18976 23.045 0.499756 30.0325 0.499756C36.955 0.499756 43 2.02726 49.63 5.43976C50.4425 5.86226 50.735 6.83726 50.3125 7.61726C50.02 8.20226 49.4675 8.52726 48.8825 8.52726V8.52726ZM2.37501 25.5898C2.05001 25.5898 1.72501 25.4923 1.43251 25.2973C0.685012 24.7773 0.522512 23.7698 1.04251 23.0223C4.26001 18.4723 8.35501 14.8973 13.23 12.3948C23.435 7.12976 36.5 7.09726 46.7375 12.3623C51.6125 14.8648 55.7075 18.4073 58.925 22.9248C59.445 23.6398 59.2825 24.6798 58.535 25.1998C57.7875 25.7198 56.78 25.5573 56.26 24.8098C53.335 20.7148 49.63 17.4973 45.2425 15.2548C35.915 10.4773 23.9875 10.4773 14.6925 15.2873C10.2725 17.5623 6.56751 20.8123 3.64251 24.9073C3.38251 25.3623 2.89501 25.5898 2.37501 25.5898V25.5898ZM22.6875 64.8173C22.265 64.8173 21.8425 64.6548 21.55 64.3298C18.7225 61.5023 17.195 59.6823 15.0175 55.7498C12.775 51.7523 11.605 46.8773 11.605 41.6448C11.605 31.9923 19.86 24.1273 30 24.1273C40.14 24.1273 48.395 31.9923 48.395 41.6448C48.395 42.5548 47.68 43.2698 46.77 43.2698C45.86 43.2698 45.145 42.5548 45.145 41.6448C45.145 33.7798 38.3525 27.3773 30 27.3773C21.6475 27.3773 14.855 33.7798 14.855 41.6448C14.855 46.3248 15.895 50.6473 17.8775 54.1573C19.9575 57.8948 21.3875 59.4873 23.89 62.0223C24.5075 62.6723 24.5075 63.6798 23.89 64.3298C23.5325 64.6548 23.11 64.8173 22.6875 64.8173ZM45.99 58.8048C42.1225 58.8048 38.71 57.8298 35.915 55.9123C31.0725 52.6298 28.18 47.2998 28.18 41.6448C28.18 40.7348 28.895 40.0198 29.805 40.0198C30.715 40.0198 31.43 40.7348 31.43 41.6448C31.43 46.2273 33.77 50.5498 37.735 53.2148C40.0425 54.7748 42.74 55.5223 45.99 55.5223C46.77 55.5223 48.07 55.4248 49.37 55.1973C50.2475 55.0348 51.0925 55.6198 51.255 56.5298C51.4175 57.4073 50.8325 58.2523 49.9225 58.4148C48.07 58.7723 46.445 58.8048 45.99 58.8048V58.8048ZM39.4575 65.4998C39.3275 65.4998 39.165 65.4673 39.035 65.4348C33.8675 64.0048 30.4875 62.0873 26.945 58.6098C22.395 54.0923 19.8925 48.0798 19.8925 41.6448C19.8925 36.3798 24.3775 32.0898 29.9025 32.0898C35.4275 32.0898 39.9125 36.3798 39.9125 41.6448C39.9125 45.1223 42.935 47.9498 46.6725 47.9498C50.41 47.9498 53.4325 45.1223 53.4325 41.6448C53.4325 29.3923 42.87 19.4473 29.87 19.4473C20.64 19.4473 12.19 24.5823 8.38751 32.5448C7.12001 35.1773 6.47001 38.2648 6.47001 41.6448C6.47001 44.1798 6.69751 48.1773 8.64751 53.3773C8.97251 54.2223 8.55001 55.1648 7.70501 55.4573C6.86001 55.7823 5.91751 55.3273 5.62501 54.5148C4.03251 50.2573 3.25251 46.0323 3.25251 41.6448C3.25251 37.7448 4.00001 34.2023 5.46251 31.1148C9.78501 22.0473 19.3725 16.1648 29.87 16.1648C44.6575 16.1648 56.6825 27.5723 56.6825 41.6123C56.6825 46.8773 52.1975 51.1673 46.6725 51.1673C41.1475 51.1673 36.6625 46.8773 36.6625 41.6123C36.6625 38.1348 33.64 35.3073 29.9025 35.3073C26.165 35.3073 23.1425 38.1348 23.1425 41.6123C23.1425 47.1698 25.2875 52.3698 29.22 56.2698C32.3075 59.3248 35.265 61.0148 39.8475 62.2823C40.725 62.5098 41.2125 63.4198 40.985 64.2648C40.8225 65.0123 40.14 65.4998 39.4575 65.4998V65.4998Z" fill="#0085AB"/>
</svg>
