<svg width="247" height="161" viewBox="0 0 247 161" fill="none" xmlns="http://www.w3.org/2000/svg">
<path d="M62.0227 92V68.7273H71.2045C72.9621 68.7273 74.4621 69.0417 75.7045 69.6705C76.9545 70.2917 77.9053 71.1742 78.5568 72.3182C79.2159 73.4545 79.5455 74.7917 79.5455 76.3295C79.5455 77.875 79.2121 79.2045 78.5455 80.3182C77.8788 81.4242 76.9129 82.2727 75.6477 82.8636C74.3902 83.4545 72.8674 83.75 71.0795 83.75H64.9318V79.7955H70.2841C71.2235 79.7955 72.0038 79.6667 72.625 79.4091C73.2462 79.1515 73.7083 78.7652 74.0114 78.25C74.322 77.7348 74.4773 77.0947 74.4773 76.3295C74.4773 75.5568 74.322 74.9053 74.0114 74.375C73.7083 73.8447 73.2424 73.4432 72.6136 73.1705C71.9924 72.8902 71.2083 72.75 70.2614 72.75H66.9432V92H62.0227ZM74.5909 81.4091L80.375 92H74.9432L69.2841 81.4091H74.5909ZM87.9091 92.3295C86.7955 92.3295 85.803 92.1364 84.9318 91.75C84.0606 91.3561 83.3712 90.7765 82.8636 90.0114C82.3636 89.2386 82.1136 88.2765 82.1136 87.125C82.1136 86.1553 82.2917 85.3409 82.6477 84.6818C83.0038 84.0227 83.4886 83.4924 84.1023 83.0909C84.7159 82.6894 85.4129 82.3864 86.1932 82.1818C86.9811 81.9773 87.8068 81.8333 88.6705 81.75C89.6856 81.6439 90.5038 81.5455 91.125 81.4545C91.7462 81.3561 92.197 81.2121 92.4773 81.0227C92.7576 80.8333 92.8977 80.553 92.8977 80.1818V80.1136C92.8977 79.3939 92.6705 78.8371 92.2159 78.4432C91.7689 78.0492 91.1326 77.8523 90.3068 77.8523C89.4356 77.8523 88.7424 78.0455 88.2273 78.4318C87.7121 78.8106 87.3712 79.2879 87.2045 79.8636L82.7273 79.5C82.9545 78.4394 83.4015 77.5227 84.0682 76.75C84.7348 75.9697 85.5947 75.3712 86.6477 74.9545C87.7083 74.5303 88.9356 74.3182 90.3295 74.3182C91.2992 74.3182 92.2273 74.4318 93.1136 74.6591C94.0076 74.8864 94.7992 75.2386 95.4886 75.7159C96.1856 76.1932 96.7348 76.8068 97.1364 77.5568C97.5379 78.2992 97.7386 79.1894 97.7386 80.2273V92H93.1477V89.5795H93.0114C92.7311 90.125 92.3561 90.6061 91.8864 91.0227C91.4167 91.4318 90.8523 91.7538 90.1932 91.9886C89.5341 92.2159 88.7727 92.3295 87.9091 92.3295ZM89.2955 88.9886C90.0076 88.9886 90.6364 88.8485 91.1818 88.5682C91.7273 88.2803 92.1553 87.8939 92.4659 87.4091C92.7765 86.9242 92.9318 86.375 92.9318 85.7614V83.9091C92.7803 84.0076 92.572 84.0985 92.3068 84.1818C92.0492 84.2576 91.7576 84.3295 91.4318 84.3977C91.1061 84.4583 90.7803 84.5152 90.4545 84.5682C90.1288 84.6136 89.8333 84.6553 89.5682 84.6932C89 84.7765 88.5038 84.9091 88.0795 85.0909C87.6553 85.2727 87.3258 85.5189 87.0909 85.8295C86.8561 86.1326 86.7386 86.5114 86.7386 86.9659C86.7386 87.625 86.9773 88.1288 87.4545 88.4773C87.9394 88.8182 88.553 88.9886 89.2955 88.9886ZM101.494 92V74.5455H106.335V92H101.494ZM103.926 72.2955C103.206 72.2955 102.589 72.0568 102.074 71.5795C101.566 71.0947 101.312 70.5152 101.312 69.8409C101.312 69.1742 101.566 68.6023 102.074 68.125C102.589 67.6402 103.206 67.3977 103.926 67.3977C104.646 67.3977 105.259 67.6402 105.767 68.125C106.282 68.6023 106.54 69.1742 106.54 69.8409C106.54 70.5152 106.282 71.0947 105.767 71.5795C105.259 72.0568 104.646 72.2955 103.926 72.2955ZM115.054 81.9091V92H110.213V74.5455H114.827V77.625H115.031C115.418 76.6098 116.065 75.8068 116.974 75.2159C117.884 74.6174 118.986 74.3182 120.281 74.3182C121.493 74.3182 122.55 74.5833 123.452 75.1136C124.353 75.6439 125.054 76.4015 125.554 77.3864C126.054 78.3636 126.304 79.5303 126.304 80.8864V92H121.463V81.75C121.471 80.6818 121.198 79.8485 120.645 79.25C120.092 78.6439 119.33 78.3409 118.361 78.3409C117.709 78.3409 117.134 78.4811 116.634 78.7614C116.141 79.0417 115.755 79.4508 115.474 79.9886C115.202 80.5189 115.062 81.1591 115.054 81.9091ZM136.551 92.2841C135.225 92.2841 134.025 91.9432 132.949 91.2614C131.881 90.572 131.032 89.5606 130.403 88.2273C129.782 86.8864 129.472 85.2424 129.472 83.2955C129.472 81.2955 129.794 79.6326 130.438 78.3068C131.081 76.9735 131.938 75.9773 133.006 75.3182C134.081 74.6515 135.259 74.3182 136.54 74.3182C137.517 74.3182 138.331 74.4848 138.983 74.8182C139.642 75.1439 140.172 75.553 140.574 76.0455C140.983 76.5303 141.294 77.0076 141.506 77.4773H141.653V68.7273H146.483V92H141.71V89.2045H141.506C141.278 89.6894 140.956 90.1705 140.54 90.6477C140.131 91.1174 139.597 91.5076 138.938 91.8182C138.286 92.1288 137.491 92.2841 136.551 92.2841ZM138.085 88.4318C138.866 88.4318 139.525 88.2197 140.062 87.7955C140.608 87.3636 141.025 86.7614 141.312 85.9886C141.608 85.2159 141.756 84.3106 141.756 83.2727C141.756 82.2348 141.612 81.3333 141.324 80.5682C141.036 79.803 140.619 79.2121 140.074 78.7955C139.528 78.3788 138.866 78.1705 138.085 78.1705C137.29 78.1705 136.619 78.3864 136.074 78.8182C135.528 79.25 135.116 79.8485 134.835 80.6136C134.555 81.3788 134.415 82.2652 134.415 83.2727C134.415 84.2879 134.555 85.1856 134.835 85.9659C135.123 86.7386 135.536 87.3447 136.074 87.7841C136.619 88.2159 137.29 88.4318 138.085 88.4318ZM150.463 92V74.5455H155.156V77.5909H155.338C155.656 76.5076 156.19 75.6894 156.94 75.1364C157.69 74.5758 158.554 74.2955 159.531 74.2955C159.774 74.2955 160.035 74.3106 160.315 74.3409C160.596 74.3712 160.842 74.4129 161.054 74.4659V78.7614C160.827 78.6932 160.512 78.6326 160.111 78.5795C159.709 78.5265 159.342 78.5 159.009 78.5C158.296 78.5 157.66 78.6553 157.099 78.9659C156.546 79.2689 156.107 79.6932 155.781 80.2386C155.463 80.7841 155.304 81.4129 155.304 82.125V92H150.463ZM170.631 92.3409C168.866 92.3409 167.339 91.9659 166.051 91.2159C164.771 90.4583 163.782 89.4053 163.085 88.0568C162.388 86.7008 162.04 85.1288 162.04 83.3409C162.04 81.5379 162.388 79.9621 163.085 78.6136C163.782 77.2576 164.771 76.2045 166.051 75.4545C167.339 74.697 168.866 74.3182 170.631 74.3182C172.396 74.3182 173.919 74.697 175.199 75.4545C176.487 76.2045 177.479 77.2576 178.176 78.6136C178.873 79.9621 179.222 81.5379 179.222 83.3409C179.222 85.1288 178.873 86.7008 178.176 88.0568C177.479 89.4053 176.487 90.4583 175.199 91.2159C173.919 91.9659 172.396 92.3409 170.631 92.3409ZM170.653 88.5909C171.456 88.5909 172.127 88.3636 172.665 87.9091C173.203 87.447 173.608 86.8182 173.881 86.0227C174.161 85.2273 174.301 84.322 174.301 83.3068C174.301 82.2917 174.161 81.3864 173.881 80.5909C173.608 79.7955 173.203 79.1667 172.665 78.7045C172.127 78.2424 171.456 78.0114 170.653 78.0114C169.843 78.0114 169.161 78.2424 168.608 78.7045C168.063 79.1667 167.65 79.7955 167.369 80.5909C167.097 81.3864 166.96 82.2917 166.96 83.3068C166.96 84.322 167.097 85.2273 167.369 86.0227C167.65 86.8182 168.063 87.447 168.608 87.9091C169.161 88.3636 169.843 88.5909 170.653 88.5909ZM182.369 98.5455V74.5455H187.142V77.4773H187.358C187.57 77.0076 187.877 76.5303 188.278 76.0455C188.688 75.553 189.218 75.1439 189.869 74.8182C190.528 74.4848 191.347 74.3182 192.324 74.3182C193.597 74.3182 194.771 74.6515 195.847 75.3182C196.922 75.9773 197.782 76.9735 198.426 78.3068C199.07 79.6326 199.392 81.2955 199.392 83.2955C199.392 85.2424 199.078 86.8864 198.449 88.2273C197.828 89.5606 196.979 90.572 195.903 91.2614C194.835 91.9432 193.638 92.2841 192.312 92.2841C191.373 92.2841 190.574 92.1288 189.915 91.8182C189.263 91.5076 188.729 91.1174 188.312 90.6477C187.896 90.1705 187.578 89.6894 187.358 89.2045H187.21V98.5455H182.369ZM187.108 83.2727C187.108 84.3106 187.252 85.2159 187.54 85.9886C187.828 86.7614 188.244 87.3636 188.79 87.7955C189.335 88.2197 189.998 88.4318 190.778 88.4318C191.566 88.4318 192.233 88.2159 192.778 87.7841C193.324 87.3447 193.737 86.7386 194.017 85.9659C194.305 85.1856 194.449 84.2879 194.449 83.2727C194.449 82.2652 194.309 81.3788 194.028 80.6136C193.748 79.8485 193.335 79.25 192.79 78.8182C192.244 78.3864 191.574 78.1705 190.778 78.1705C189.991 78.1705 189.324 78.3788 188.778 78.7955C188.241 79.2121 187.828 79.803 187.54 80.5682C187.252 81.3333 187.108 82.2348 187.108 83.2727Z" fill="url(#paint0_linear_1_18)"/>
<path d="M235.234 1.09537C234.726 2.25072 206.199 31.8512 192 46.507C202.438 35.0605 217.815 17.1503 218.703 16.1791C220.611 14.093 235.87 -0.34882 235.234 1.09537Z" fill="#0085AB"/>
<path d="M230.08 50.1078C229.845 50.6814 216.646 65.3767 210.076 72.6526C214.905 66.97 222.021 58.0783 222.431 57.5962C223.314 56.5606 230.374 49.3909 230.08 50.1078Z" fill="#0085AB"/>
<path d="M246.217 67.5513C245.933 68.2723 229.967 86.7464 222.019 95.8933C227.861 88.7494 236.468 77.5713 236.965 76.9652C238.033 75.6633 246.573 66.6499 246.217 67.5513Z" fill="#0085AB"/>
<path d="M216.201 112.722C215.996 113.222 204.501 126.028 198.779 132.368C202.985 127.416 209.182 119.668 209.54 119.248C210.308 118.345 216.457 112.097 216.201 112.722Z" fill="#0085AB"/>
<path d="M29.6896 25.0359C29.5074 25.4456 19.2891 35.9422 14.2027 41.1393C17.9416 37.0803 23.45 30.7291 23.7681 30.3848C24.4514 29.645 29.9173 24.5238 29.6896 25.0359Z" fill="#0085AB"/>
<path d="M43.2341 66.0954C42.7255 67.2507 14.1994 96.8512 0 111.507C10.4377 100.061 25.8155 82.1503 26.7034 81.1791C28.6108 79.093 43.8699 64.6512 43.2341 66.0954Z" fill="#0085AB"/>
<path d="M38.08 115.108C37.8446 115.681 24.646 130.377 18.0761 137.653C22.9055 131.97 30.0206 123.078 30.4314 122.596C31.314 121.561 38.3742 114.391 38.08 115.108Z" fill="#0085AB"/>
<path d="M54.2174 132.551C53.9327 133.272 37.9666 151.746 30.0192 160.893C35.8612 153.749 44.4681 142.571 44.9651 141.965C46.0327 140.663 54.5732 131.65 54.2174 132.551Z" fill="#0085AB"/>
<defs>
<linearGradient id="paint0_linear_1_18" x1="60" y1="104" x2="217.999" y2="104" gradientUnits="userSpaceOnUse">
<stop stop-color="#0085AB"/>
<stop offset="0.333333" stop-color="#2CB2C3"/>
<stop offset="0.680085" stop-color="#F9D520"/>
<stop offset="1" stop-color="#D1D922"/>
</linearGradient>
</defs>
</svg>
