<svg width="30" height="30" viewBox="0 0 30 30" fill="none" xmlns="http://www.w3.org/2000/svg">
<path fill-rule="evenodd" clip-rule="evenodd" d="M14.9897 5.21406L15.0002 5.20864L15.0111 5.2143L20.5779 8.55438L22.5002 9.71253V23.5001C22.5002 24.2414 22.4982 24.6471 22.4744 24.9385L22.4715 24.9715L22.4386 24.9744C22.1471 24.9982 21.7415 25.0001 21.0002 25.0001H9.00015C8.25883 25.0001 7.8532 24.9982 7.56174 24.9744L7.52878 24.9715L7.52591 24.9385C7.5021 24.6471 7.50015 24.2414 7.50015 23.5001V9.71256L9.41536 8.55866L14.9897 5.21406ZM8.12727 6.41604L1.85707 10.1782C1.26509 10.5333 1.07314 11.3012 1.42832 11.8931C1.78351 12.4851 2.55133 12.6771 3.14331 12.3219L5.00015 11.2078V23.5001C5.00015 24.9002 5.00015 25.6003 5.27264 26.1351C5.51232 26.6055 5.89477 26.988 6.36518 27.2276C6.89996 27.5001 7.60002 27.5001 9.00015 27.5001H21.0002C22.4003 27.5001 23.1003 27.5001 23.6351 27.2276C24.1055 26.988 24.488 26.6055 24.7277 26.1351C25.0002 25.6003 25.0002 24.9002 25.0002 23.5001V11.2077L26.8571 12.3219C27.449 12.6771 28.2169 12.4851 28.5721 11.8931C28.9272 11.3012 28.7353 10.5333 28.1433 10.1782L21.8659 6.41171L17.0644 3.51886C16.7153 3.30854 16.4474 3.14714 16.2204 3.02577C16.1674 2.99613 16.1136 2.96857 16.0591 2.94307C15.8702 2.85087 15.7064 2.7895 15.5382 2.75242C15.1837 2.67432 14.8166 2.67432 14.4621 2.75243C14.2934 2.7896 14.1293 2.85119 13.9397 2.94379C13.8862 2.96887 13.8334 2.99594 13.7813 3.02501C13.554 3.14647 13.2857 3.3081 12.9359 3.51886L8.12727 6.41604Z" fill="currentColor"/>
<path fill-rule="evenodd" clip-rule="evenodd" d="M16.25 25V20C16.25 19.3096 15.6904 18.75 15 18.75C14.3096 18.75 13.75 19.3096 13.75 20V25H16.25ZM15 16.25C12.9289 16.25 11.25 17.9289 11.25 20V27.5H18.75V20C18.75 17.9289 17.0711 16.25 15 16.25Z" fill="currentColor"/>
</svg>
