<svg width="15" height="13" viewBox="0 0 15 13" fill="none" xmlns="http://www.w3.org/2000/svg">
<path fill-rule="evenodd" clip-rule="evenodd" d="M6.12381 5.93519C6.50474 5.56992 6.71875 5.07449 6.71875 4.55791C6.71875 4.04133 6.50474 3.54591 6.12381 3.18063C5.74288 2.81536 5.22622 2.61014 4.6875 2.61014C4.14878 2.61014 3.63212 2.81536 3.25119 3.18063C2.87026 3.54591 2.65625 4.04133 2.65625 4.55791C2.65625 5.07449 2.87026 5.56992 3.25119 5.93519C3.63212 6.30047 4.14878 6.50568 4.6875 6.50568C5.22622 6.50568 5.74288 6.30047 6.12381 5.93519ZM5.78125 4.55791C5.78125 4.69564 5.75296 4.83203 5.69799 4.95927C5.64303 5.08652 5.56246 5.20214 5.4609 5.29953C5.35933 5.39692 5.23876 5.47417 5.10606 5.52688C4.97336 5.57958 4.83113 5.60671 4.6875 5.60671C4.54387 5.60671 4.40164 5.57958 4.26894 5.52688C4.13624 5.47417 4.01567 5.39692 3.9141 5.29953C3.81254 5.20214 3.73197 5.08652 3.67701 4.95927C3.62204 4.83203 3.59375 4.69564 3.59375 4.55791C3.59375 4.27976 3.70898 4.01299 3.9141 3.8163C4.11922 3.61961 4.39742 3.50911 4.6875 3.50911C4.97758 3.50911 5.25578 3.61961 5.4609 3.8163C5.66602 4.01299 5.78125 4.27976 5.78125 4.55791Z" fill="black"/>
<path fill-rule="evenodd" clip-rule="evenodd" d="M1.09375 0.212891C0.489688 0.212891 0 0.682454 0 1.26169V11.1504C0 11.7296 0.489688 12.1992 1.09375 12.1992H13.9062C14.5103 12.1992 15 11.7296 15 11.1504V1.26169C15 0.682454 14.5103 0.212891 13.9062 0.212891H1.09375ZM0.9375 1.26169C0.9375 1.17894 1.00746 1.11186 1.09375 1.11186H13.9062C13.9925 1.11186 14.0625 1.17894 14.0625 1.26169V9.33997L10.3049 5.84936C9.87199 5.44725 9.18145 5.4567 8.76071 5.87049L3.23985 11.3002H1.09375C1.00746 11.3002 0.9375 11.2331 0.9375 11.1504V1.26169ZM9.65256 6.49504L14.0625 10.5916V11.1504C14.0625 11.2331 13.9925 11.3002 13.9062 11.3002H4.54921L9.43196 6.49806C9.49207 6.43894 9.59072 6.43759 9.65256 6.49504Z" fill="black"/>
</svg>
