<svg width="40" height="41" viewBox="0 0 40 41" fill="none" xmlns="http://www.w3.org/2000/svg">
<path d="M12.1666 10.1501C12.1666 5.74774 15.6807 2.19172 19.9999 2.19172C24.3191 2.19172 27.8332 5.74774 27.8332 10.1501V16.9167C27.8332 17.5819 27.3039 18.1084 26.6666 18.1084C26.0292 18.1084 25.4999 17.5819 25.4999 16.9167V10.1501C25.4999 7.07811 23.0445 4.57505 19.9999 4.57505C16.9553 4.57505 14.4999 7.07811 14.4999 10.1501V16.9167C14.4999 17.5819 13.9706 18.1084 13.3332 18.1084C12.6959 18.1084 12.1666 17.5819 12.1666 16.9167V10.1501Z" fill="white" stroke="black"/>
<path d="M5.68403 22.4143C5.9336 18.9095 8.64265 16.2008 12.0847 15.9787C14.286 15.8367 16.9779 15.725 20 15.725C23.0221 15.725 25.714 15.8367 27.9153 15.9787C31.3573 16.2008 34.0664 18.9095 34.316 22.4143C34.4232 23.9201 34.5 25.5343 34.5 27.0667C34.5 28.5991 34.4232 30.2132 34.316 31.7191C34.0664 35.2239 31.3573 37.9325 27.9153 38.1546C25.714 38.2966 23.0221 38.4083 20 38.4083C16.9779 38.4083 14.286 38.2966 12.0847 38.1546C8.64265 37.9325 5.9336 35.2239 5.68403 31.7191C5.5768 30.2132 5.5 28.5991 5.5 27.0667C5.5 25.5343 5.5768 23.9201 5.68403 22.4143ZM22.1667 28.5789C23.174 27.8786 23.8333 26.7037 23.8333 25.375C23.8333 23.2373 22.1241 21.4917 20 21.4917C17.8759 21.4917 16.1667 23.2373 16.1667 25.375C16.1667 26.7037 16.826 27.8786 17.8333 28.5789V30.45C17.8333 31.6534 18.7964 32.6417 20 32.6417C21.2036 32.6417 22.1667 31.6534 22.1667 30.45V28.5789Z" fill="white" stroke="black"/>
</svg>
