<svg width="24" height="24" viewBox="0 0 24 24" fill="none" xmlns="http://www.w3.org/2000/svg">
<path fill-rule="evenodd" clip-rule="evenodd" d="M11.0287 15.0007C11.5806 14.9799 12.0449 15.4104 12.0657 15.9623C12.1127 17.2065 12.1786 18.1145 12.2435 18.7656C12.3074 19.4068 12.6945 19.7926 13.2341 19.8586C13.8703 19.9363 14.7678 20 15.9995 20C17.2312 20 18.1287 19.9363 18.765 19.8586C19.3043 19.7926 19.6916 19.4067 19.7555 18.7653C19.8758 17.5568 19.9995 15.4688 19.9995 12C19.9995 8.53118 19.8758 6.44321 19.7555 5.23468C19.6916 4.59333 19.3043 4.20736 18.765 4.14144C18.1287 4.06366 17.2312 4 15.9995 4C14.7678 4 13.8703 4.06365 13.234 4.14143C12.6945 4.20739 12.3074 4.59318 12.2435 5.23437C12.1786 5.88545 12.1127 6.79354 12.0657 8.03772C12.0449 8.58961 11.5806 9.02012 11.0287 8.99929C10.4768 8.97845 10.0463 8.51417 10.0671 7.96228C10.1153 6.68524 10.1837 5.73543 10.2534 5.03611C10.3998 3.56595 11.4248 2.3477 12.9914 2.15621C13.7206 2.06707 14.7003 2 15.9995 2C17.2987 2 18.2785 2.06707 19.0077 2.15622C20.5743 2.34774 21.5992 3.56655 21.7456 5.03643C21.8745 6.33068 21.9995 8.48847 21.9995 12C21.9995 15.5115 21.8745 17.6693 21.7456 18.9636C21.5992 20.4334 20.5744 21.6523 19.0077 21.8438C18.2785 21.9329 17.2987 22 15.9995 22C14.7003 22 13.7206 21.9329 12.9914 21.8438C11.4248 21.6523 10.3998 20.4341 10.2534 18.9639C10.1837 18.2646 10.1153 17.3148 10.0671 16.0377C10.0463 15.4858 10.4768 15.0215 11.0287 15.0007Z" fill="#0085AB"/>
<path fill-rule="evenodd" clip-rule="evenodd" d="M7.20711 14.7929C7.59763 15.1834 7.59763 15.8166 7.20711 16.2071C6.81658 16.5976 6.18342 16.5976 5.79289 16.2071L2.29289 12.7071C1.90237 12.3166 1.90237 11.6834 2.29289 11.2929L5.79289 7.79289C6.18342 7.40237 6.81658 7.40237 7.20711 7.79289C7.59763 8.18342 7.59763 8.81658 7.20711 9.20711L5.41421 11H15C15.5523 11 16 11.4477 16 12C16 12.5523 15.5523 13 15 13L5.41421 13L7.20711 14.7929Z" fill="#0085AB"/>
</svg>
