<svg width="61" height="14" viewBox="0 0 61 14" fill="none" xmlns="http://www.w3.org/2000/svg">
<path d="M0.884943 11V0.818182H4.90199C5.67093 0.818182 6.32718 0.955729 6.87074 1.23082C7.41761 1.5026 7.83357 1.88873 8.11861 2.3892C8.40696 2.88636 8.55114 3.47135 8.55114 4.14418C8.55114 4.82031 8.4053 5.40199 8.11364 5.8892C7.82197 6.37311 7.39938 6.74432 6.84588 7.00284C6.29569 7.26136 5.6295 7.39062 4.8473 7.39062H2.15767V5.66051H4.49929C4.91027 5.66051 5.25166 5.60417 5.52344 5.49148C5.79522 5.37879 5.9974 5.20975 6.12997 4.98438C6.26586 4.759 6.33381 4.47893 6.33381 4.14418C6.33381 3.80611 6.26586 3.52107 6.12997 3.28906C5.9974 3.05705 5.79356 2.88139 5.51847 2.76207C5.24669 2.63944 4.90365 2.57812 4.48935 2.57812H3.03764V11H0.884943ZM6.38352 6.36648L8.91406 11H6.53764L4.06179 6.36648H6.38352ZM12.2102 11.1442C11.723 11.1442 11.2888 11.0597 10.9077 10.8906C10.5265 10.7183 10.2249 10.4647 10.0028 10.13C9.78409 9.7919 9.67472 9.37098 9.67472 8.86719C9.67472 8.44295 9.7526 8.08665 9.90838 7.7983C10.0642 7.50994 10.2763 7.27794 10.5447 7.10227C10.8132 6.92661 11.1181 6.79403 11.4595 6.70455C11.8042 6.61506 12.1655 6.55208 12.5433 6.51562C12.9875 6.46922 13.3454 6.42614 13.6172 6.38636C13.889 6.34328 14.0862 6.2803 14.2088 6.19744C14.3314 6.11458 14.3928 5.99195 14.3928 5.82955V5.79972C14.3928 5.48485 14.2933 5.24124 14.0945 5.06889C13.8989 4.89654 13.6205 4.81037 13.2592 4.81037C12.8781 4.81037 12.5748 4.89489 12.3494 5.06392C12.1241 5.22964 11.9749 5.43845 11.902 5.69034L9.94318 5.53125C10.0426 5.06723 10.2382 4.66619 10.5298 4.32812C10.8215 3.98674 11.1977 3.7249 11.6584 3.54261C12.1224 3.35701 12.6593 3.2642 13.2692 3.2642C13.6934 3.2642 14.0994 3.31392 14.4872 3.41335C14.8783 3.51278 15.2247 3.6669 15.5263 3.87571C15.8312 4.08452 16.0715 4.35298 16.2472 4.68111C16.4228 5.00592 16.5107 5.39536 16.5107 5.84943V11H14.5021V9.94105H14.4425C14.3198 10.1797 14.1558 10.3902 13.9503 10.5724C13.7448 10.7514 13.4979 10.8923 13.2095 10.995C12.9212 11.0945 12.5881 11.1442 12.2102 11.1442ZM12.8168 9.68253C13.1283 9.68253 13.4034 9.62121 13.642 9.49858C13.8807 9.37263 14.0679 9.2036 14.2038 8.99148C14.3397 8.77936 14.4077 8.53906 14.4077 8.2706V7.46023C14.3414 7.50331 14.2502 7.54309 14.1342 7.57955C14.0215 7.61269 13.8939 7.64418 13.7514 7.67401C13.6089 7.70052 13.4664 7.72538 13.3239 7.74858C13.1813 7.76847 13.0521 7.78669 12.9361 7.80327C12.6875 7.83973 12.4704 7.89773 12.2848 7.97727C12.0992 8.05682 11.955 8.16454 11.8523 8.30043C11.7495 8.433 11.6982 8.59872 11.6982 8.79759C11.6982 9.08594 11.8026 9.30634 12.0114 9.45881C12.2235 9.60795 12.492 9.68253 12.8168 9.68253ZM18.1538 11V3.36364H20.2717V11H18.1538ZM19.2177 2.37926C18.9028 2.37926 18.6327 2.27486 18.4073 2.06605C18.1853 1.85393 18.0742 1.60038 18.0742 1.3054C18.0742 1.01373 18.1853 0.763494 18.4073 0.554688C18.6327 0.342566 18.9028 0.236505 19.2177 0.236505C19.5326 0.236505 19.801 0.342566 20.0231 0.554688C20.2485 0.763494 20.3612 1.01373 20.3612 1.3054C20.3612 1.60038 20.2485 1.85393 20.0231 2.06605C19.801 2.27486 19.5326 2.37926 19.2177 2.37926ZM24.0861 6.58523V11H21.9682V3.36364H23.9867V4.71094H24.0762C24.2452 4.26681 24.5286 3.91548 24.9263 3.65696C25.324 3.39512 25.8063 3.2642 26.373 3.2642C26.9033 3.2642 27.3657 3.38021 27.7601 3.61222C28.1545 3.84422 28.4611 4.17566 28.6799 4.60653C28.8986 5.03409 29.008 5.54451 29.008 6.13778V11H26.8901V6.51562C26.8934 6.0483 26.7741 5.68371 26.5321 5.42188C26.2902 5.15672 25.9571 5.02415 25.5328 5.02415C25.2478 5.02415 24.9959 5.08546 24.7772 5.2081C24.5617 5.33073 24.3927 5.50971 24.2701 5.74503C24.1507 5.97704 24.0894 6.2571 24.0861 6.58523ZM33.4911 11.1243C32.9111 11.1243 32.3858 10.9751 31.9151 10.6768C31.4478 10.3752 31.0766 9.93277 30.8015 9.34943C30.5297 8.76278 30.3938 8.04356 30.3938 7.19176C30.3938 6.31676 30.5347 5.58925 30.8164 5.00923C31.0981 4.4259 31.4727 3.99006 31.94 3.7017C32.4106 3.41004 32.926 3.2642 33.4862 3.2642C33.9137 3.2642 34.27 3.33712 34.555 3.48295C34.8434 3.62547 35.0754 3.80445 35.2511 4.01989C35.43 4.23201 35.5659 4.44081 35.6587 4.64631H35.7234V0.818182H37.8363V11H35.7482V9.77699H35.6587C35.5593 9.98911 35.4184 10.1996 35.2362 10.4084C35.0572 10.6139 34.8235 10.7846 34.5352 10.9205C34.2501 11.0563 33.9021 11.1243 33.4911 11.1243ZM34.1623 9.43892C34.5037 9.43892 34.792 9.34612 35.0273 9.16051C35.266 8.97159 35.4483 8.7081 35.5742 8.37003C35.7035 8.03196 35.7681 7.63589 35.7681 7.18182C35.7681 6.72775 35.7051 6.33333 35.5792 5.99858C35.4532 5.66383 35.271 5.4053 35.0323 5.22301C34.7937 5.04072 34.5037 4.94957 34.1623 4.94957C33.8143 4.94957 33.521 5.04403 33.2823 5.23295C33.0437 5.42187 32.863 5.68371 32.7404 6.01847C32.6178 6.35322 32.5565 6.741 32.5565 7.18182C32.5565 7.62595 32.6178 8.0187 32.7404 8.36009C32.8664 8.69815 33.047 8.9633 33.2823 9.15554C33.521 9.34446 33.8143 9.43892 34.1623 9.43892ZM39.5776 11V3.36364H41.6309V4.69602H41.7104C41.8496 4.22206 42.0833 3.86411 42.4114 3.62216C42.7395 3.37689 43.1174 3.25426 43.5449 3.25426C43.651 3.25426 43.7653 3.26089 43.888 3.27415C44.0106 3.28741 44.1183 3.30563 44.2111 3.32883V5.2081C44.1117 5.17827 43.9741 5.15175 43.7985 5.12855C43.6228 5.10535 43.4621 5.09375 43.3162 5.09375C43.0047 5.09375 42.7263 5.1617 42.481 5.29759C42.2391 5.43016 42.0468 5.61577 41.9043 5.8544C41.7651 6.09304 41.6955 6.36813 41.6955 6.67969V11H39.5776ZM48.4009 11.1491C47.6287 11.1491 46.9608 10.9851 46.3974 10.657C45.8372 10.3255 45.4047 9.86482 45.0998 9.27486C44.7949 8.68158 44.6424 7.99384 44.6424 7.21165C44.6424 6.42282 44.7949 5.73343 45.0998 5.14347C45.4047 4.55019 45.8372 4.08949 46.3974 3.76136C46.9608 3.42992 47.6287 3.2642 48.4009 3.2642C49.1732 3.2642 49.8394 3.42992 50.3995 3.76136C50.9629 4.08949 51.3971 4.55019 51.7021 5.14347C52.007 5.73343 52.1594 6.42282 52.1594 7.21165C52.1594 7.99384 52.007 8.68158 51.7021 9.27486C51.3971 9.86482 50.9629 10.3255 50.3995 10.657C49.8394 10.9851 49.1732 11.1491 48.4009 11.1491ZM48.4109 9.50852C48.7622 9.50852 49.0555 9.40909 49.2908 9.21023C49.5262 9.00805 49.7035 8.73295 49.8228 8.38494C49.9454 8.03693 50.0067 7.64086 50.0067 7.19673C50.0067 6.7526 49.9454 6.35653 49.8228 6.00852C49.7035 5.66051 49.5262 5.38542 49.2908 5.18324C49.0555 4.98106 48.7622 4.87997 48.4109 4.87997C48.0562 4.87997 47.7579 4.98106 47.516 5.18324C47.2773 5.38542 47.0967 5.66051 46.9741 6.00852C46.8548 6.35653 46.7951 6.7526 46.7951 7.19673C46.7951 7.64086 46.8548 8.03693 46.9741 8.38494C47.0967 8.73295 47.2773 9.00805 47.516 9.21023C47.7579 9.40909 48.0562 9.50852 48.4109 9.50852ZM53.5366 13.8636V3.36364H55.6246V4.64631H55.7191C55.8119 4.44081 55.9461 4.23201 56.1218 4.01989C56.3008 3.80445 56.5328 3.62547 56.8178 3.48295C57.1062 3.33712 57.4641 3.2642 57.8917 3.2642C58.4485 3.2642 58.9622 3.41004 59.4329 3.7017C59.9035 3.99006 60.2797 4.4259 60.5614 5.00923C60.8432 5.58925 60.984 6.31676 60.984 7.19176C60.984 8.04356 60.8465 8.76278 60.5714 9.34943C60.2996 9.93277 59.9284 10.3752 59.4577 10.6768C58.9904 10.9751 58.4667 11.1243 57.8867 11.1243C57.4757 11.1243 57.1261 11.0563 56.8377 10.9205C56.5527 10.7846 56.319 10.6139 56.1367 10.4084C55.9544 10.1996 55.8152 9.98911 55.7191 9.77699H55.6545V13.8636H53.5366ZM55.6097 7.18182C55.6097 7.63589 55.6727 8.03196 55.7987 8.37003C55.9246 8.7081 56.1069 8.97159 56.3455 9.16051C56.5842 9.34612 56.8742 9.43892 57.2156 9.43892C57.5603 9.43892 57.8519 9.34446 58.0906 9.15554C58.3292 8.9633 58.5098 8.69815 58.6325 8.36009C58.7584 8.0187 58.8214 7.62595 58.8214 7.18182C58.8214 6.741 58.7601 6.35322 58.6374 6.01847C58.5148 5.68371 58.3342 5.42187 58.0955 5.23295C57.8569 5.04403 57.5636 4.94957 57.2156 4.94957C56.8709 4.94957 56.5792 5.04072 56.3406 5.22301C56.1052 5.4053 55.9246 5.66383 55.7987 5.99858C55.6727 6.33333 55.6097 6.72775 55.6097 7.18182Z" fill="url(#paint0_linear_32_148)"/>
<defs>
<linearGradient id="paint0_linear_32_148" x1="0" y1="17" x2="64.6358" y2="17" gradientUnits="userSpaceOnUse">
<stop stop-color="#0085AB"/>
<stop offset="0.333333" stop-color="#2CB2C3"/>
<stop offset="0.680085" stop-color="#F9D520"/>
<stop offset="1" stop-color="#D1D922"/>
</linearGradient>
</defs>
</svg>
