<svg width="28" height="28" viewBox="0 0 28 28" fill="none" xmlns="http://www.w3.org/2000/svg">
<path d="M8 21.5C8 20.1193 9.27919 19 10.8571 19H25.1429C26.7208 19 28 20.1193 28 21.5C28 22.8807 26.7208 24 25.1429 24H10.8571C9.27919 24 8 22.8807 8 21.5Z" fill="white"/>
<path d="M8 13.5C8 12.1193 9.27919 11 10.8571 11H25.1429C26.7208 11 28 12.1193 28 13.5C28 14.8807 26.7208 16 25.1429 16H10.8571C9.27919 16 8 14.8807 8 13.5Z" fill="white"/>
<path d="M8 5.5C8 4.11929 9.27919 3 10.8571 3H25.1429C26.7208 3 28 4.11929 28 5.5C28 6.88071 26.7208 8 25.1429 8H10.8571C9.27919 8 8 6.88071 8 5.5Z" fill="white"/>
<path fill-rule="evenodd" clip-rule="evenodd" d="M4 1C5.10457 1 6 1.52912 6 2.18182V25.8182C6 26.4709 5.10457 27 4 27C2.89543 27 2 26.4709 2 25.8182V2.18182C2 1.52912 2.89543 1 4 1Z" fill="white"/>
</svg>
