<svg width="24" height="24" viewBox="0 0 24 24" fill="none" xmlns="http://www.w3.org/2000/svg">
<path fill-rule="evenodd" clip-rule="evenodd" d="M11.9643 12.6546C9.77052 12.6546 7.9921 14.3522 7.9921 16.4463V17.5296C7.9921 17.8288 7.73804 18.0713 7.42464 18.0713C7.11124 18.0713 6.85718 17.8288 6.85718 17.5296V16.4463C6.85718 13.7539 9.14372 11.5713 11.9643 11.5713C14.7849 11.5713 17.0715 13.7539 17.0715 16.4463V17.5296C17.0715 17.8288 16.8174 18.0713 16.504 18.0713C16.1906 18.0713 15.9365 17.8288 15.9365 17.5296V16.4463C15.9365 14.3522 14.1581 12.6546 11.9643 12.6546Z" fill="currentColor"/>
<path fill-rule="evenodd" clip-rule="evenodd" d="M11.9644 11.4167C13.161 11.4167 14.131 10.4466 14.131 9.25C14.131 8.05338 13.161 7.08333 11.9644 7.08333C10.7677 7.08333 9.79769 8.05338 9.79769 9.25C9.79769 10.4466 10.7677 11.4167 11.9644 11.4167ZM11.9644 12.5C13.7593 12.5 15.2144 11.0449 15.2144 9.25C15.2144 7.45507 13.7593 6 11.9644 6C10.1694 6 8.71436 7.45507 8.71436 9.25C8.71436 11.0449 10.1694 12.5 11.9644 12.5Z" fill="currentColor"/>
<circle cx="12" cy="12" r="11" stroke="currentColor" stroke-width="2"/>
</svg>
