<svg width="429" height="197" viewBox="0 0 429 197" fill="none" xmlns="http://www.w3.org/2000/svg">
<path d="M386.222 194.79C388.031 196.876 391.189 197.101 393.276 195.292L427.274 165.812C429.361 164.003 429.585 160.845 427.776 158.759C425.967 156.672 422.809 156.447 420.723 158.256L390.502 184.461L364.297 154.24C362.488 152.154 359.33 151.929 357.244 153.738C355.158 155.547 354.933 158.705 356.742 160.791L386.222 194.79ZM394.987 191.869C395.243 188.275 395.379 184.708 395.397 181.17L385.397 181.119C385.38 184.436 385.253 187.783 385.013 191.159L394.987 191.869ZM394.055 159.858C393.109 152.722 391.672 145.738 389.769 138.925L380.138 141.615C381.915 147.978 383.258 154.503 384.142 161.172L394.055 159.858ZM382.593 118.795C379.744 112.277 376.448 105.958 372.734 99.857L364.192 105.057C367.678 110.782 370.765 116.702 373.43 122.8L382.593 118.795ZM360.511 82.4076C356.122 76.912 351.365 71.6406 346.267 66.6098L339.243 73.7277C344.069 78.4898 348.561 83.4689 352.697 88.648L360.511 82.4076ZM330.358 52.5575C324.886 48.2247 319.126 44.1242 313.102 40.2698L307.712 48.6934C313.462 52.372 318.948 56.2784 324.151 60.3976L330.358 52.5575ZM294.773 29.7251C288.589 26.5363 282.186 23.5804 275.582 20.8691L271.784 30.1199C278.127 32.724 284.268 35.5592 290.189 38.6128L294.773 29.7251ZM255.782 13.6709C249.17 11.5624 242.392 9.6834 235.465 8.04413L233.162 17.7754C239.846 19.357 246.378 21.1682 252.744 23.1983L255.782 13.6709ZM214.808 3.94525C207.977 2.84277 201.025 1.9645 193.964 1.31911L193.053 11.2776C199.888 11.9023 206.613 12.752 213.215 13.8175L214.808 3.94525ZM172.982 0.102765C166.059 -0.0710991 159.048 -0.0254893 151.962 0.24716L152.347 10.2398C159.222 9.97521 166.021 9.9311 172.731 10.0996L172.982 0.102765ZM130.992 1.70289C124.118 2.39125 117.185 3.2919 110.204 4.41138L111.787 14.2852C118.575 13.1969 125.312 12.3217 131.988 11.6531L130.992 1.70289ZM89.612 8.32487C82.8664 9.80732 76.085 11.4949 69.2761 13.3933L71.9618 23.0259C78.5929 21.1771 85.1945 19.5343 91.7584 18.0918L89.612 8.32487ZM49.2523 19.5654C42.7132 21.7746 36.1566 24.1808 29.5901 26.7888L33.2812 36.0826C39.6865 33.5387 46.0795 31.1926 52.4531 29.0393L49.2523 19.5654ZM10.3321 35.0106C7.15814 36.4612 3.98359 37.9599 0.809211 39.5072L5.19078 48.4962C8.29083 46.9851 11.3904 45.5218 14.4888 44.1058L10.3321 35.0106Z" fill="#0085AB"/>
</svg>
