<svg width="172" height="198" viewBox="0 0 172 198" fill="none" xmlns="http://www.w3.org/2000/svg">
<path d="M2.45079 157.372C0.498173 159.324 0.498173 162.49 2.45079 164.443L34.2706 196.263C36.2232 198.215 39.389 198.215 41.3417 196.263C43.2943 194.31 43.2943 191.144 41.3417 189.191L13.0574 160.907L41.3417 132.623C43.2943 130.67 43.2943 127.505 41.3417 125.552C39.389 123.599 36.2232 123.599 34.2706 125.552L2.45079 157.372ZM5.98633 165.907C9.68188 165.907 13.3022 165.823 16.8486 165.657L16.3821 155.668C12.9943 155.826 9.52958 155.907 5.98633 155.907V165.907ZM38.486 163.53C45.9656 162.383 53.0636 160.84 59.7961 158.942L57.0822 149.317C50.7554 151.101 44.0582 152.559 36.9708 153.645L38.486 163.53ZM80.3961 151.578C87.3313 148.529 93.7851 145.062 99.784 141.245L94.4163 132.808C88.8453 136.352 82.8403 139.58 76.3709 142.424L80.3961 151.578ZM117.323 128.045C122.938 123.082 128.02 117.787 132.607 112.259L124.912 105.873C120.638 111.022 115.914 115.945 110.7 120.553L117.323 128.045ZM145.333 94.4184C149.209 88.074 152.565 81.5771 155.453 75.0471L146.307 71.0026C143.586 77.1566 140.431 83.2606 136.8 89.2052L145.333 94.4184ZM163.033 54.5996C165.226 47.3855 166.908 40.2727 168.149 33.4212L158.309 31.6387C157.134 38.1274 155.54 44.8635 153.465 51.6914L163.033 54.5996ZM170.746 11.7927C170.965 7.96059 171.04 4.29283 170.986 0.829111L160.987 0.985342C161.037 4.19678 160.968 7.62188 160.762 11.222L170.746 11.7927Z" fill="#0085AB"/>
</svg>
