<svg width="198" height="171" viewBox="0 0 198 171" fill="none" xmlns="http://www.w3.org/2000/svg">
<path d="M157.459 169.52C159.412 171.473 162.577 171.473 164.53 169.52L196.35 137.7C198.302 135.747 198.302 132.582 196.35 130.629C194.397 128.676 191.231 128.676 189.279 130.629L160.995 158.913L132.71 130.629C130.758 128.676 127.592 128.676 125.639 130.629C123.687 132.582 123.687 135.747 125.639 137.7L157.459 169.52ZM165.995 165.984C165.995 162.289 165.91 158.669 165.744 155.122L155.755 155.589C155.914 158.976 155.995 162.441 155.995 165.984L165.995 165.984ZM163.617 133.485C162.471 126.005 160.928 118.907 159.029 112.175L149.405 114.888C151.189 121.215 152.646 127.912 153.733 135L163.617 133.485ZM151.666 91.5746C148.616 84.6394 145.149 78.1856 141.333 72.1867L132.895 77.5544C136.439 83.1254 139.667 89.1304 142.511 95.5998L151.666 91.5746ZM128.132 54.6473C123.169 49.0322 117.874 43.9511 112.346 39.3632L105.96 47.0584C111.11 51.3323 116.032 56.0572 120.64 61.2702L128.132 54.6473ZM94.5057 26.6375C88.1613 22.7617 81.6643 19.4058 75.1343 16.5181L71.0899 25.6637C77.2439 28.3852 83.3478 31.5395 89.2925 35.1711L94.5057 26.6375ZM54.6869 8.93786C47.4728 6.74507 40.3599 5.06268 33.5085 3.82153L31.726 13.6614C38.2146 14.8368 44.9507 16.4302 51.7787 18.5056L54.6869 8.93786ZM11.8799 1.22465C8.04786 1.0056 4.3801 0.930862 0.916384 0.984985L1.07262 10.9838C4.28405 10.9336 7.70916 11.0026 11.3093 11.2084L11.8799 1.22465Z" fill="#0085AB"/>
</svg>
