<svg width="175" height="198" viewBox="0 0 175 198" fill="none" xmlns="http://www.w3.org/2000/svg">
<path d="M173.536 157.464C175.488 159.417 175.488 162.583 173.536 164.536L141.716 196.355C139.763 198.308 136.597 198.308 134.645 196.355C132.692 194.403 132.692 191.237 134.645 189.284L162.929 161L134.645 132.716C132.692 130.763 132.692 127.597 134.645 125.645C136.597 123.692 139.763 123.692 141.716 125.645L173.536 157.464ZM170 166C166.251 166 162.578 165.918 158.979 165.758L159.425 155.768C162.872 155.921 166.397 156 170 156V166ZM137.024 163.698C129.43 162.588 122.217 161.094 115.37 159.255L117.963 149.598C124.421 151.332 131.251 152.748 138.47 153.803L137.024 163.698ZM94.3856 152.115C87.286 149.146 80.6704 145.765 74.5123 142.04L79.6883 133.484C85.4231 136.953 91.5984 140.11 98.2444 142.89L94.3856 152.115ZM56.3946 129.07C50.5597 124.163 45.2728 118.921 40.4928 113.439L48.0302 106.867C52.4843 111.976 57.4048 116.854 62.8302 121.416L56.3946 129.07ZM27.1545 95.6274C23.0713 89.2584 19.5338 82.7273 16.4877 76.156L25.5603 71.9504C28.4277 78.1361 31.7495 84.2665 35.573 90.2302L27.1545 95.6274ZM8.46603 55.4999C6.13962 48.1908 4.35458 40.9793 3.03709 34.0314L12.862 32.1683C14.1079 38.7387 15.7961 45.5585 17.995 52.4669L8.46603 55.4999ZM0.274704 12.0604C0.0410004 8.1646 -0.0392303 4.4371 0.0174561 0.919452L10.0161 1.08055C9.96373 4.33434 10.0376 7.80815 10.2568 11.4616L0.274704 12.0604Z" fill="#0085AB"/>
</svg>
