<svg width="37" height="37" viewBox="0 0 37 37" fill="none" xmlns="http://www.w3.org/2000/svg">
<path fill-rule="evenodd" clip-rule="evenodd" d="M7.70833 9.24968L7.70833 23.1247L29.2917 23.1247L29.2917 9.24967C29.2917 8.39824 28.6014 7.70801 27.75 7.70801L9.25 7.70801C8.39856 7.70801 7.70833 8.39824 7.70833 9.24968ZM4.625 26.208L32.375 26.208L32.375 9.24967C32.375 6.69536 30.3043 4.62467 27.75 4.62467L9.25 4.62468C6.69568 4.62468 4.625 6.69536 4.625 9.24968L4.625 26.208Z" fill="white"/>
<path fill-rule="evenodd" clip-rule="evenodd" d="M4.625 26.2083L4.625 27.75C4.625 28.6014 5.31523 29.2917 6.16666 29.2917L30.8333 29.2917C31.6848 29.2917 32.375 28.6014 32.375 27.75L32.375 26.2083L4.625 26.2083ZM1.54166 27.75C1.54166 30.3043 3.61235 32.375 6.16666 32.375L30.8333 32.375C33.3876 32.375 35.4583 30.3043 35.4583 27.75L35.4583 24.6667C35.4583 23.8152 34.7681 23.125 33.9167 23.125L3.08333 23.125C2.23189 23.125 1.54166 23.8152 1.54166 24.6667L1.54166 27.75Z" fill="white"/>
</svg>
