<svg width="200" height="214" viewBox="0 0 200 214" fill="none" xmlns="http://www.w3.org/2000/svg">
<path d="M99.7402 213C99.7692 211.593 99.8364 210.187 99.9421 208.78C100.092 207.373 100.236 205.967 100.376 204.56C100.448 203.153 100.467 201.747 100.434 200.34C100.296 198.933 100.126 197.527 99.9249 196.12C99.7335 194.713 99.5859 193.307 99.4821 191.9C99.5189 190.493 99.6274 189.087 99.8078 187.68C100.078 186.273 100.344 184.867 100.606 183.46C100.755 182.053 100.811 180.647 100.772 179.24C100.537 177.833 100.239 176.427 99.8769 175.02C99.5174 173.613 99.2311 172.207 99.0182 170.8C99.0559 169.393 99.2273 167.987 99.5324 166.58C100.017 165.173 100.505 163.767 100.996 162.36C101.299 160.953 101.435 159.547 101.404 158.14C101.009 156.733 100.488 155.327 99.8402 153.92C99.1686 152.513 98.6179 151.107 98.1881 149.7C98.2035 148.293 98.4665 146.887 98.9773 145.48C99.8417 144.073 100.732 142.667 101.648 141.26C102.256 139.853 102.567 138.447 102.582 137.04C101.924 135.633 101.019 134.227 99.8658 132.82C98.6174 131.413 97.5655 130.007 96.7102 128.6C96.641 127.193 97.0287 125.787 97.8733 124.38C99.4092 122.973 101.027 121.567 102.726 120.16C103.927 118.753 104.607 117.347 104.766 115.94C103.685 114.533 102.124 113.127 100.08 111.72C97.7709 110.313 95.7747 108.907 94.0916 107.5C93.7897 106.093 94.3266 104.687 95.7024 103.28C98.4174 101.873 101.343 100.467 104.478 99.06C106.83 97.6533 108.269 96.2467 108.794 94.84C107.05 93.4333 104.377 92.0267 100.774 90.62C96.5218 89.2133 92.7558 87.8067 89.4765 86.4C88.6093 84.9933 89.2754 83.5867 91.4748 82.18C96.2487 80.7733 101.516 79.3667 107.277 77.96C111.839 76.5533 114.812 75.1467 116.194 73.74C113.437 72.3333 108.9 70.9267 102.584 69.52C94.7884 68.1133 87.723 66.7067 81.3876 65.3C79.2386 63.8933 79.88 62.4867 83.3118 61.08C91.6572 59.6733 101.098 58.2667 111.635 56.86C120.415 55.4533 126.445 54.0467 129.724 52.64C125.488 51.2333 117.865 49.8266 106.856 48.42C92.6296 47.0133 79.4428 45.6067 67.2956 44.2C62.3641 42.7933 62.4881 41.3867 67.6676 39.98C82.1661 38.5733 99.0089 37.1667 118.196 35.76C134.972 34.3533 147.026 32.9467 154.356 31.54C148.099 30.1333 135.44 28.7266 116.378 27.32C90.5288 25.9133 66.0382 24.5067 42.9062 23.1C32.1148 21.6933 30.4422 20.2867 37.8885 18.88C62.9047 17.4733 92.8058 16.0667 127.592 14.66C159.438 13.2533 183.241 11.8467 199 10.44C190.307 9.03332 169.576 7.62664 136.808 6.21998C90.0467 4.81331 44.7775 3.40666 0.999988 1.99999" stroke="url(#paint0_linear_5_246)" stroke-width="3"/>
<defs>
<linearGradient id="paint0_linear_5_246" x1="1.0001" y1="-3.20987" x2="1.00018" y2="192.16" gradientUnits="userSpaceOnUse">
<stop stop-color="#0085AB"/>
<stop offset="0.333333" stop-color="#2CB2C3" stop-opacity="0.6"/>
<stop offset="0.898542" stop-color="#F9D520" stop-opacity="0.4"/>
</linearGradient>
</defs>
</svg>
